<svg height="512pt" viewBox="-66 0 512 512" width="512pt" xmlns="http://www.w3.org/2000/svg"><path d="m371.882812 443.476562c0-33.699218-81.570312-61.019531-182.191406-61.019531s-182.191406 27.320313-182.191406 61.019531c0 33.703126 81.570312 61.023438 182.191406 61.023438s182.191406-27.320312 182.191406-61.023438zm0 0" fill="#64c6fb"/><path d="m271.730469 440.863281c0-16.03125-36.730469-29.027343-82.039063-29.027343-45.304687 0-82.035156 12.996093-82.035156 29.027343 0 16.035157 36.730469 29.03125 82.035156 29.03125 45.308594 0 82.039063-12.996093 82.039063-29.03125zm0 0" fill="#ecebed"/><path d="m296.910156 55.289062c-27.1875-30.226562-66.5625-47.789062-107.21875-47.789062s-80.027344 17.5625-107.214844 47.789062c-69.722656 77.519532-34.328124 192.976563 13.851563 270.515626 26.132813 42.046874 58.414063 80.109374 93.363281 115.058593h.003906c34.949219-34.949219 67.230469-73.011719 93.363282-115.058593 48.179687-77.539063 83.574218-192.996094 13.851562-270.515626zm0 0" fill="#fc595a"/><path d="m297.386719 159.421875c0 59.476563-48.214844 107.695313-107.695313 107.695313-59.476562 0-107.695312-48.21875-107.695312-107.695313s48.21875-107.695313 107.695312-107.695313c59.480469 0 107.695313 48.21875 107.695313 107.695313zm0 0" fill="#ecebed"/><path d="m209.691406 257.117188c-59.476562 0-107.695312-48.21875-107.695312-107.695313 0-38.179687 19.871094-71.71875 49.832031-90.84375-40.796875 15.328125-69.832031 54.691406-69.832031 100.84375 0 59.476563 48.21875 107.695313 107.695312 107.695313 21.300782 0 41.152344-6.183594 57.863282-16.851563-11.777344 4.425781-24.535157 6.851563-37.863282 6.851563zm0 0" fill="#dfdfe0"/><path d="m189.691406 44.226562c-63.519531 0-115.195312 51.675782-115.195312 115.195313s51.675781 115.195313 115.195312 115.195313c63.519532 0 115.195313-51.675782 115.195313-115.195313s-51.675781-115.195313-115.195313-115.195313zm0 215.390626c-55.246094 0-100.195312-44.945313-100.195312-100.195313 0-55.246094 44.949218-100.195313 100.195312-100.195313s100.195313 44.949219 100.195313 100.195313c0 55.25-44.945313 100.195313-100.195313 100.195313zm0 0"/><path d="m133.9375 138.046875c-4.144531 0-7.5 3.359375-7.5 7.5v10.089844c0 4.144531 3.355469 7.5 7.5 7.5 4.140625 0 7.5-3.355469 7.5-7.5v-10.089844c0-4.140625-3.359375-7.5-7.5-7.5zm0 0"/><path d="m245.449219 138.046875c-4.144531 0-7.5 3.359375-7.5 7.5v10.089844c0 4.144531 3.355469 7.5 7.5 7.5 4.140625 0 7.5-3.355469 7.5-7.5v-10.089844c0-4.140625-3.359375-7.5-7.5-7.5zm0 0"/><path d="m208.390625 149.289062c-3.121094-2.726562-7.859375-2.40625-10.585937.710938-1.957032 2.242188-4.914063 3.523438-8.113282 3.523438-3.199218 0-6.15625-1.285157-8.113281-3.523438-2.726563-3.117188-7.464844-3.4375-10.585937-.710938-3.117188 2.726563-3.433594 7.464844-.710938 10.582032 4.808594 5.5 11.882812 8.652344 19.410156 8.652344s14.601563-3.152344 19.40625-8.652344c2.726563-3.117188 2.410156-7.855469-.707031-10.582032zm0 0"/><path d="m254.953125 378.925781c12.757813-16.320312 24.210937-32.65625 34.472656-49.164062 26.585938-42.78125 44.800781-89.574219 51.289063-131.757813 8.300781-53.957031-1.554688-100-29.28125-136.851562-2.492188-3.308594-7.191406-3.972656-10.503906-1.480469-3.308594 2.488281-3.972657 7.191406-1.480469 10.5 25.207031 33.5 34.101562 75.742187 26.441406 125.550781-6.191406 40.230469-23.664063 85.023438-49.203125 126.121094-12.140625 19.539062-26.023438 38.84375-41.832031 58.207031-.023438.027344-.050781.050781-.074219.078125-8.265625 10.117188-17.160156 20.355469-26.597656 30.625-.347656.378906-16.53125 17.464844-18.492188 19.457032-1.957031-1.992188-14.648437-14.652344-18.503906-19.472657-9.429688-10.261719-18.320312-20.496093-26.582031-30.609375-.023438-.027344-.050781-.050781-.074219-.078125-15.8125-19.363281-29.6875-38.667969-41.832031-58.207031-26.9375-43.351562-44.71875-90.320312-50.070313-132.253906-6.664062-52.242188 5.253906-95.742188 35.425782-129.285156 25.894531-28.792969 62.9375-45.304688 101.636718-45.304688 33.210938 0 65.324219 12.15625 90.429688 34.234375 3.109375 2.734375 7.847656 2.433594 10.582031-.679687 2.738281-3.109376 2.433594-7.847657-.675781-10.582032-27.84375-24.488281-63.476563-37.972656-100.335938-37.972656-42.945312 0-84.054687 18.324219-112.792968 50.273438-33.222657 36.9375-46.394532 84.449218-39.152344 141.214843 5.617187 44.027344 24.160156 93.132813 52.214844 138.273438 10.257812 16.507812 21.714843 32.84375 34.46875 49.164062-76.058594 9.527344-124.429688 34.339844-124.429688 64.550781 0 20.238282 21.640625 38.371094 60.929688 51.0625 3.941406 1.273438 8.171874-.890624 9.441406-4.832031 1.273437-3.941406-.886719-8.167969-4.832032-9.441406-31.644531-10.222656-50.539062-23.976563-50.539062-36.789063 0-18.609374 42.210938-42.472656 120.546875-50.738281 4.230469 5.117188 8.59375 10.238281 13.097656 15.371094-25.386719 5.023437-48.488281 15.59375-48.488281 32.753906 0 23.984375 45.042969 36.53125 89.535156 36.53125 44.496094 0 89.539063-12.546875 89.539063-36.53125 0-17.160156-23.105469-27.730469-48.492188-32.753906 4.503907-5.132813 8.867188-10.253906 13.097657-15.371094 78.335937 8.265625 120.546874 32.128907 120.546874 50.738281 0 12.449219-18.035156 25.917969-48.246093 36.039063-33.660157 11.273437-78.566407 17.484375-126.445313 17.484375-34.132812 0-67.304687-3.214844-95.929687-9.300781-4.050781-.863281-8.035157 1.726562-8.894531 5.777343-.863282 4.050782 1.722656 8.03125 5.777343 8.894532 29.628907 6.300781 63.878907 9.628906 99.046875 9.628906 49.453125 0 96.050782-6.484375 131.210938-18.261719 48.335937-16.1875 58.480468-36.265625 58.480468-50.261719 0-30.207031-48.367187-55.019531-124.429687-64.550781zm-36.082031 42.378907c29.621094 4.160156 45.359375 13.855468 45.359375 19.558593 0 7.308594-26.308594 21.53125-74.539063 21.53125-48.226562 0-74.535156-14.222656-74.535156-21.53125 0-5.703125 15.734375-15.394531 45.355469-19.558593 7.785156 8.453124 15.753906 16.734374 23.878906 24.863281 2.925781 2.929687 7.675781 2.929687 10.605469 0 8.121094-8.121094 16.101562-16.410157 23.875-24.863281zm0 0"/></svg>