<svg xmlns="http://www.w3.org/2000/svg" viewBox="0 0 312 202.05"><defs><style>.cls-1{fill:#1565c0;}.cls-2{fill:#1e88e5;}.cls-3{fill:#00897b;}</style></defs><title>svg</title><g id="Layer_2" data-name="Layer 2"><g id="__plan_svg" data-name="&lt;&gt;_plan svg"><path class="cls-1" d="M237.26,0H74.55a5.81,5.81,0,0,0-4.3,1.9L1.51,77.66A5.81,5.81,0,0,0,0,81.56H0a5.81,5.81,0,0,0,1.51,3.91l68,74.64a5.81,5.81,0,0,0,4.29,1.9H238.46a5.81,5.81,0,0,0,4.3-1.91l67.74-74.69a5.81,5.81,0,0,0,1.51-3.9h0a5.81,5.81,0,0,0-1.51-3.91L241.55,1.9A5.81,5.81,0,0,0,237.26,0ZM211.67,160h-111a5.81,5.81,0,0,1-4.33-1.94L31.45,85.22a5.81,5.81,0,0,1,0-7.72L96.53,4.44a5.81,5.81,0,0,1,4.33-1.94h110a5.81,5.81,0,0,1,4.34,1.94l65.35,73.39a5.81,5.81,0,0,1,0,7.72L216,158.06A5.81,5.81,0,0,1,211.67,160Z"/><path class="cls-1" d="M173.6,92.26l-.43-43.12a1.32,1.32,0,0,1,1.28-1.33l44.85-1.28a1.32,1.32,0,0,0,1.28-1.4L219.71,32a1.32,1.32,0,0,0-1.42-1.23c-12.69,1-54.7,3.08-63.91,3.38a1.32,1.32,0,0,0-1.27,1.39c.49,8.38,1.26,47.47,1.29,50.33l.25,24.86c0,3.9.36,35.75-.73,49.86a1.31,1.31,0,0,0,1.31,1.41h18a1.32,1.32,0,0,0,1.32-1.39c-.53-10.11-.63-34.31-.65-36.66l-.16-15.82a1.32,1.32,0,0,1,1.33-1.33l41.71.2a1.32,1.32,0,0,0,1.32-1.39l-.67-12.88A1.31,1.31,0,0,0,216,91.49c-11.32.72-34.55,1.87-41.09,2.08A1.32,1.32,0,0,1,173.6,92.26Z"/><path class="cls-2" d="M160.85,94.73l-17,.56A1.32,1.32,0,0,1,142.53,94l-.28-92.66A1.32,1.32,0,0,0,140.93,0h-2.08a1.32,1.32,0,0,0-1.08.56l-75,106.94a1.32,1.32,0,0,0-.21,1.05h0a1.32,1.32,0,0,0,1.29,1l62.28-.19a1.32,1.32,0,0,1,1.32,1.31l0,5.68c0,10.32-.56,18.61-.78,24.23a1.31,1.31,0,0,0,1.32,1.37l13.43,0a1.31,1.31,0,0,0,1.31-1.35c-.19-5.86-.37-14.64-.39-22l0-8a1.32,1.32,0,0,1,1.36-1.32l16.1.47a1.32,1.32,0,0,0,1.35-1.21l1-12.28A1.32,1.32,0,0,0,160.85,94.73Zm-71.07.57a1.32,1.32,0,0,1-1.11-2c8.3-12.49,33-48,38.61-57.47h.36l.17,58.08a1.32,1.32,0,0,1-1.31,1.32Z"/><path class="cls-2" d="M36.39,171.57h3.35v19.09H42.2v4.21H39.75v6.79h-4.3v-6.79h-15v-3.05Zm-.86,19.18V179.09l-9.42,11.65Z"/><path class="cls-1" d="M48.61,201.67H44.26V171.61H62.19V176H48.61v8.47h12v4.39h-12Z"/><path class="cls-1" d="M78.49,192.81H67.7c-1.16,2.75-2.67,6.36-3.61,8.86H59.4l12.08-30.49h3.18l12.08,30.49H82.1Zm-9.16-4.08h7.48l-3.7-10.62Z"/><path class="cls-1" d="M89.58,175.91A14.52,14.52,0,0,1,100,171.44a14.09,14.09,0,0,1,14,11.09h-4.3a9.8,9.8,0,0,0-9.72-6.79,10.24,10.24,0,0,0-7.4,3.22,11.12,11.12,0,0,0,0,15.39,10.36,10.36,0,0,0,17.37-4h4.26c-1.72,6.84-7.22,11.48-14.23,11.48a14.35,14.35,0,0,1-10.41-4.47,15.59,15.59,0,0,1,0-21.5Z"/><path class="cls-1" d="M120.59,197.32h14v4.34H116.2V171.61h18.32V176H120.59v8.47h13.63v4.39H120.59Z"/><path class="cls-2" d="M168.06,179.35c-.6-2.71-3.53-3.87-6.15-3.83a7.17,7.17,0,0,0-5.46,2.28,3.94,3.94,0,0,0-.73,2.79c.22,3.1,3.61,3.48,6.84,3.78,4.13.52,9.25,1.59,10.41,6.41a10.71,10.71,0,0,1,.21,2c0,5.8-5.76,9.16-11.18,9.16-4.64,0-10.28-2.75-10.84-8.13l0-.82,4.39-.09,0,.64v-.17c.3,2.79,3.7,4.26,6.49,4.26,3.22,0,6.75-1.81,6.75-4.9a4.82,4.82,0,0,0-.13-1c-.52-2.28-3.61-2.67-6.62-3-4.69-.47-10.19-1.51-10.66-7.78v0a8.14,8.14,0,0,1,1.63-5.72c2-2.62,5.63-4,9.12-4,4.64,0,9.46,2.41,10.23,7.91Z"/><path class="cls-2" d="M179.45,201.8V175.61h-9.12v-4h22.53v4H183.8V201.8Z"/><path class="cls-2" d="M194.93,192.64v-21h4.39v21.07c0,3.31,3.57,4.95,6.75,4.95s6.71-1.68,6.71-5v-21h4.39v21.07c0,6.11-5.93,9.29-11.09,9.29S194.93,198.79,194.93,192.64Z"/><path class="cls-2" d="M232.34,171.61c9.85,0,14.79,7.53,14.79,15s-4.94,15-14.79,15H221.55V171.61Zm0,25.71c7,0,10.49-5.33,10.49-10.66S239.31,176,232.34,176h-6.45v21.37Z"/><path class="cls-2" d="M263.22,175.91h-5.59v21.41h5.59v4.34H247.69v-4.34h5.59V175.91h-5.59v-4.3h15.52Z"/><path class="cls-2" d="M267.47,175.74a15.21,15.21,0,0,1,21.71,0,15.47,15.47,0,0,1,0,21.76,15.21,15.21,0,0,1-21.71,0,15.47,15.47,0,0,1,0-21.76Zm18.62,3.1a11.07,11.07,0,0,0-7.78-3.27,10.8,10.8,0,0,0-7.7,3.27,11,11,0,0,0,0,15.57,10.8,10.8,0,0,0,7.7,3.27,11.07,11.07,0,0,0,7.78-18.83Z"/><path class="cls-2" d="M270,66l10.54,11.84a5.79,5.79,0,0,1,.56.76l.11.18a5.74,5.74,0,0,1,.32.67c.05.12.1.25.15.37a5.85,5.85,0,0,1,.23,2.87l16.42-18.43-4.9-5.38-51.9-57A5.81,5.81,0,0,0,237.26,0H74.55a5.8,5.8,0,0,0-4.3,1.9L1.51,77.66A5.8,5.8,0,0,0,0,81.56H0a5.81,5.81,0,0,0,1.51,3.91L12.93,98,48.61,58.23,79.11,24,96.53,4.44a5.65,5.65,0,0,1,.58-.56l.12-.1a6,6,0,0,1,.64-.45,5.8,5.8,0,0,1,3-.84h110a5.8,5.8,0,0,1,2.28.47,5.87,5.87,0,0,1,1.08.61h0c.15.11.3.23.44.35l.06,0a5.71,5.71,0,0,1,.45.45L259.33,54Z"/><polygon class="cls-3" points="258 113.14 258 114 258.97 114 258 113.14"/><rect class="cls-2" x="268" y="164" width="2" height="12" rx="1" ry="1" transform="translate(-46.83 131.12) rotate(-25.27)"/><rect class="cls-2" x="287" y="164" width="2" height="12" rx="1" ry="1" transform="translate(475.85 446.69) rotate(-154.73)"/><circle class="cls-2" cx="274.5" cy="182.5" r="2.5"/><circle class="cls-2" cx="282.5" cy="182.5" r="2.5"/><circle class="cls-2" cx="266.5" cy="164.5" r="1.5"/><circle class="cls-2" cx="290.5" cy="164.5" r="1.5"/></g></g></svg>