<svg height="512pt" viewBox="-52 0 511 512" width="512pt" xmlns="http://www.w3.org/2000/svg"><path d="m279.144531 178.140625v-109.417969h-150.136719v109.417969c0 18.34375-4.472656 36.414063-13.023437 52.644531l-101.546875 192.710938c-19.386719 36.792968 7.289062 81.003906 48.875 81.003906h281.527344c41.585937 0 68.261718-44.210938 48.875-81.003906l-101.546875-192.710938c-8.550781-16.230468-13.023438-34.300781-13.023438-52.644531zm0 0" fill="#7397da"/><path d="m164.972656 96.527344h114.171875v-27.804688h-150.136719v109.417969c0 18.34375-4.472656 36.414063-13.023437 52.644531l-101.546875 192.710938c-19.386719 36.792968 7.289062 81.003906 48.875 81.003906h258.152344c-157.972656-63.445312-156.714844-258.972656-156.492188-407.972656zm0 0" fill="#6988c4"/><path d="m284.023438 68.722656h-159.894532c-12.421875 0-22.492187-10.070312-22.492187-22.492187v-16.238281c0-12.421876 10.070312-22.492188 22.492187-22.492188h159.894532c12.421874 0 22.492187 10.070312 22.492187 22.492188v16.238281c0 12.421875-10.070313 22.492187-22.492187 22.492187zm0 0" fill="#80bbe6"/><path d="m185.476562 7.5h-61.347656c-12.421875 0-22.492187 10.070312-22.492187 22.492188v16.238281c0 12.421875 10.070312 22.492187 22.492187 22.492187h73.964844c-30.804688-12.09375-27.488281-49.792968-12.617188-61.222656zm0 0" fill="#76acd4"/><path d="m292.167969 230.785156c-5.421875-10.289062-9.195313-21.316406-11.238281-32.6875-34.125 11.132813-60.105469 9.042969-90.089844-.871094-16.078125-5.316406-38.335938-12.71875-62.035156-12.386718-.953126 16.027344-5.3125 31.695312-12.820313 45.945312l-101.546875 192.710938c-19.386719 36.792968 7.289062 81.003906 48.875 81.003906h281.527344c41.585937 0 68.261718-44.210938 48.875-81.003906zm0 0" fill="#f8e47c"/><path d="m165.984375 189.726562c-11.421875-2.886718-24.078125-5.070312-37.179687-4.886718-.953126 16.027344-5.3125 31.695312-12.820313 45.945312l-101.546875 192.710938c-19.386719 36.792968 7.289062 81.003906 48.875 81.003906h258.152344c-126.496094-50.800781-150.894532-186.292969-155.480469-314.773438zm0 0" fill="#edd35f"/><path d="m63.3125 504.5h281.527344c32.410156 0 55.765625-26.855469 55.3125-56.125h-392.152344c-.449219 29.269531 22.902344 56.125 55.3125 56.125zm0 0" fill="#80bbe6"/><path d="m63.3125 504.5h258.152344c-33.328125-13.386719-59.566406-32.65625-80.222656-56.125h-233.242188c-.449219 29.269531 22.902344 56.125 55.3125 56.125zm0 0" fill="#76acd4"/><path d="m148.625 365.949219c0-14.261719-14.515625-25.820313-32.425781-25.820313-17.90625 0-32.421875 11.558594-32.421875 25.820313s14.515625 25.820312 32.421875 25.820312c17.910156 0 32.425781-11.558593 32.425781-25.820312zm0 0" fill="#eb8d9a"/><path d="m324.375 365.949219c0-14.261719-14.515625-25.820313-32.425781-25.820313-17.90625 0-32.421875 11.558594-32.421875 25.820313s14.515625 25.820312 32.421875 25.820312c17.910156 0 32.425781-11.558593 32.425781-25.820312zm0 0" fill="#eb8d9a"/><path d="m204.074219 488.921875c-4.140625 0-7.5-3.359375-7.5-7.5v-9.96875c0-4.140625 3.359375-7.5 7.5-7.5 4.144531 0 7.5 3.359375 7.5 7.5v9.96875c0 4.140625-3.355469 7.5-7.5 7.5zm0 0" fill="#80bbe6"/><path d="m104.632812 488.921875c-4.140624 0-7.5-3.359375-7.5-7.5v-9.96875c0-4.140625 3.359376-7.5 7.5-7.5 4.140626 0 7.5 3.359375 7.5 7.5v9.96875c0 4.140625-3.359374 7.5-7.5 7.5zm0 0" fill="#80bbe6"/><path d="m303.519531 488.921875c-4.140625 0-7.5-3.359375-7.5-7.5v-9.96875c0-4.140625 3.359375-7.5 7.5-7.5s7.5 3.359375 7.5 7.5v9.96875c0 4.140625-3.359375 7.5-7.5 7.5zm0 0" fill="#76acd4"/><path d="m250.167969 142.203125c0 12.191406-9.882813 22.074219-22.074219 22.074219s-22.078125-9.882813-22.078125-22.074219 9.886719-22.074219 22.078125-22.074219 22.074219 9.882813 22.074219 22.074219zm0 0" fill="#f8e47c"/><path d="m155.964844 248.660156c0 4.054688-3.285156 7.339844-7.339844 7.339844s-7.339844-3.285156-7.339844-7.339844c0-4.054687 3.285156-7.34375 7.339844-7.34375s7.339844 3.289063 7.339844 7.34375zm0 0" fill="#f8e47c"/><path d="m246.46875 416.40625c0 4.054688-3.289062 7.339844-7.339844 7.339844-4.054687 0-7.34375-3.285156-7.34375-7.339844s3.289063-7.339844 7.34375-7.339844c4.050782 0 7.339844 3.285156 7.339844 7.339844zm0 0" fill="#edd35f"/><path d="m283.519531 286.609375c0 4.054687-3.289062 7.34375-7.34375 7.34375-4.054687 0-7.339843-3.289063-7.339843-7.34375 0-4.050781 3.285156-7.339844 7.339843-7.339844 4.054688 0 7.34375 3.289063 7.34375 7.339844zm0 0" fill="#edd35f"/><path d="m227.191406 335.042969c-3.125-2.722657-7.863281-2.394531-10.582031.726562-3.164063 3.628907-7.730469 5.710938-12.535156 5.710938-4.800781 0-9.367188-2.082031-12.53125-5.710938-2.722657-3.121093-7.457031-3.449219-10.582031-.726562-3.121094 2.722656-3.445313 7.460937-.726563 10.582031 6.015625 6.902344 14.703125 10.859375 23.839844 10.859375s17.828125-3.957031 23.839843-10.859375c2.722657-3.121094 2.398438-7.859375-.722656-10.582031zm45.863282-13.804688c-4.144532 0-7.5 3.359375-7.5 7.5v11.453125c0 4.140625 3.355468 7.5 7.5 7.5 4.140624 0 7.5-3.359375 7.5-7.5v-11.453125c0-4.140625-3.359376-7.5-7.5-7.5zm-137.957032 0c-4.144531 0-7.5 3.359375-7.5 7.5v11.453125c0 4.140625 3.355469 7.5 7.5 7.5 4.140625 0 7.5-3.359375 7.5-7.5v-11.453125c0-4.140625-3.359375-7.5-7.5-7.5zm122.570313-179.035156c0-16.308594-13.265625-29.574219-29.574219-29.574219s-29.578125 13.265625-29.578125 29.574219 13.269531 29.574219 29.578125 29.574219 29.574219-13.265625 29.574219-29.574219zm-44.152344 0c0-8.039063 6.539063-14.574219 14.578125-14.574219 8.035156 0 14.574219 6.535156 14.574219 14.574219 0 8.035156-6.539063 14.574219-14.574219 14.574219-8.039062 0-14.578125-6.539063-14.578125-14.574219zm90.003906 321.75c-4.140625 0-7.5 3.359375-7.5 7.5v9.96875c0 4.140625 3.359375 7.5 7.5 7.5s7.5-3.359375 7.5-7.5v-9.96875c0-4.140625-3.359375-7.5-7.5-7.5zm-198.886719 0c-4.140624 0-7.5 3.359375-7.5 7.5v9.96875c0 4.140625 3.359376 7.5 7.5 7.5 4.140626 0 7.5-3.359375 7.5-7.5v-9.96875c0-4.140625-3.359374-7.5-7.5-7.5zm303.007813-15.839844c-.183594-9.609375-2.601563-19.214843-7.289063-28.109375l-101.546874-192.714844c-7.953126-15.09375-12.160157-32.089843-12.160157-49.148437v-102.039063c15.316407-1.335937 27.371094-14.21875 27.371094-29.871093v-16.238281c0-16.539063-13.457031-29.992188-29.992187-29.992188h-159.894532c-16.535156 0-29.992187 13.453125-29.992187 29.992188v16.238281c0 15.652343 12.054687 28.535156 27.371093 29.871093v19.609376c0 4.144531 3.355469 7.5 7.5 7.5 4.140626 0 7.5-3.355469 7.5-7.5v-19.488282h135.136719v101.917969c0 4.910156.308594 9.816406.910157 14.683594-27.242188 7.84375-50.035157 6.976562-79.359376-2.71875l-.257812-.085938c-14.867188-4.914062-34.664062-11.4375-56.429688-12.519531v-46.054688c0-4.144531-3.359374-7.5-7.5-7.5-4.144531 0-7.5 3.355469-7.5 7.5v46.695313c0 17.058594-4.207031 34.054687-12.160156 49.148437l-101.546875 192.714844c-4.6875 8.894532-7.105469 18.5-7.289062 28.109375 0 .085938-.011719.171875-.011719.261719 0 .039062.003906.078125.007812.117188-.148437 11.457031 2.886719 22.910156 9.082032 33.179687 11.457031 18.988281 31.542968 30.328125 53.722656 30.328125h281.527344c22.179687 0 42.265625-11.339844 53.722656-30.328125 6.195312-10.269531 9.230469-21.722656 9.082031-33.179687.003907-.039063.007813-.078126.007813-.117188 0-.089844-.011719-.175781-.011719-.261719zm-283.511719-386.890625c-8.265625 0-14.992187-6.726562-14.992187-14.992187v-16.238281c0-8.265626 6.726562-14.992188 14.992187-14.992188h159.894532c8.265624 0 14.992187 6.726562 14.992187 14.992188v16.238281c0 8.265625-6.726563 14.992187-14.992187 14.992187zm261.59375 412.699219c-8.722656 14.449219-24.003906 23.078125-40.882812 23.078125h-281.527344c-16.878906 0-32.160156-8.628906-40.882812-23.078125-3.410157-5.65625-5.546876-11.785156-6.433594-18.046875h318.828125c4.140625 0 7.5-3.355469 7.5-7.5 0-4.140625-3.359375-7.5-7.5-7.5h-318.539063c.863282-4.757812 2.445313-9.433594 4.785156-13.878906l101.546876-192.714844c6.851562-12.996094 11.261718-27.230469 13.019531-41.796875 19.835937.988281 38.550781 7.136719 52.59375 11.777344l.253906.085937c17.632813 5.832032 33.441406 8.738282 49.105469 8.738282 12.394531 0 24.703125-1.828126 37.742187-5.464844 2.332031 9.242187 5.75 18.214844 10.199219 26.660156l101.550781 192.714844c2.339844 4.445312 3.921875 9.121094 4.785157 13.878906h-22.738282c-4.144531 0-7.5 3.359375-7.5 7.5 0 4.144531 3.355469 7.5 7.5 7.5h23.027344c-.886719 6.261719-3.023438 12.390625-6.433594 18.046875zm-181.648437-9.96875c-4.140625 0-7.5 3.359375-7.5 7.5v9.96875c0 4.140625 3.359375 7.5 7.5 7.5 4.144531 0 7.5-3.359375 7.5-7.5v-9.96875c0-4.140625-3.355469-7.5-7.5-7.5zm0 0"/></svg>